<?xml version="1.0" encoding="UTF-8"?>
<!DOCTYPE svg PUBLIC "-//W3C//DTD SVG 1.1//EN" "http://www.w3.org/Graphics/SVG/1.1/DTD/svg11.dtd">
<svg xmlns="http://www.w3.org/2000/svg" version="1.1" width="1080px" height="533px" style="shape-rendering:geometricPrecision; text-rendering:geometricPrecision; image-rendering:optimizeQuality; fill-rule:evenodd; clip-rule:evenodd" xmlns:xlink="http://www.w3.org/1999/xlink">
<g><path style="opacity:1" fill="#e2f0fb" d="M -0.5,-0.5 C 37.1667,-0.5 74.8333,-0.5 112.5,-0.5C 112.5,18.8333 112.5,38.1667 112.5,57.5C 75.1667,57.5 37.8333,57.5 0.5,57.5C 0.166667,57.5 -0.166667,57.5 -0.5,57.5C -0.5,38.1667 -0.5,18.8333 -0.5,-0.5 Z"/></g>
<g><path style="opacity:1" fill="#9ea9b1" d="M 112.5,-0.5 C 434.833,-0.5 757.167,-0.5 1079.5,-0.5C 1079.5,176.833 1079.5,354.167 1079.5,531.5C 719.833,531.5 360.167,531.5 0.5,531.5C 0.5,373.5 0.5,215.5 0.5,57.5C 37.8333,57.5 75.1667,57.5 112.5,57.5C 112.5,38.1667 112.5,18.8333 112.5,-0.5 Z"/></g>
<g><path style="opacity:1" fill="#d74b44" d="M 25.5,18.5 C 28.6985,19.4323 31.8652,19.4323 35,18.5C 39.0843,19.2251 40.4177,21.5584 39,25.5C 32.3632,33.883 27.1965,33.0497 23.5,23C 23.5186,21.167 24.1852,19.667 25.5,18.5 Z"/></g>
<g><path style="opacity:1" fill="#d74b44" d="M 47.5,18.5 C 49.9363,18.317 52.103,18.9837 54,20.5C 56.9663,17.7348 59.633,18.0682 62,21.5C 62.2589,25.145 60.7589,27.9783 57.5,30C 51.5023,31.7538 47.5023,29.4204 45.5,23C 46.0439,21.415 46.7106,19.915 47.5,18.5 Z"/></g>
<g><path style="opacity:1" fill="#d74a44" d="M 70.5,18.5 C 72.8273,18.2471 74.8273,18.9137 76.5,20.5C 82.2857,17.1124 84.7857,18.7791 84,25.5C 77.3632,33.883 72.1965,33.0497 68.5,23C 68.5186,21.167 69.1852,19.667 70.5,18.5 Z"/></g>
<g><path style="opacity:1" fill="#0d0d0e" d="M 536.5,194.5 C 543.556,197.073 550.556,197.073 557.5,194.5C 560.364,195.758 561.03,197.758 559.5,200.5C 564.61,211.921 560.776,217.921 548,218.5C 544.323,218.372 540.823,217.539 537.5,216C 535.112,213.694 534.112,210.861 534.5,207.5C 536.145,203.253 536.812,198.919 536.5,194.5 Z"/></g>
<g><path style="opacity:1" fill="#a0a0a0" d="M 539.5,205.5 C 544.845,206.542 550.179,206.709 555.5,206C 559.946,210.439 559.279,213.773 553.5,216C 549.167,216.667 544.833,216.667 540.5,216C 536.842,212.862 536.509,209.362 539.5,205.5 Z"/></g>
<g><path style="opacity:1" fill="#121212" d="M 541.5,207.5 C 543.484,207.484 544.484,208.484 544.5,210.5C 543.167,214.5 541.833,214.5 540.5,210.5C 540.685,209.416 541.018,208.416 541.5,207.5 Z"/></g>
<g><path style="opacity:1" fill="#161616" d="M 552.5,207.5 C 555.513,208.356 556.18,210.189 554.5,213C 553.552,213.483 552.552,213.649 551.5,213.5C 551.325,211.379 551.659,209.379 552.5,207.5 Z"/></g>
<g><path style="opacity:1" fill="#594f40" d="M 203.5,233.5 C 201.738,234.262 200.738,235.596 200.5,237.5C 199.167,238.167 198.167,239.167 197.5,240.5C 196.662,240.158 196.328,239.492 196.5,238.5C 198.633,236.909 200.299,234.909 201.5,232.5C 203.832,228.532 206.665,224.866 210,221.5C 210.49,220.207 210.657,218.873 210.5,217.5C 212.167,217.5 213.833,217.5 215.5,217.5C 215.5,219.167 215.5,220.833 215.5,222.5C 214.448,222.351 213.448,222.517 212.5,223C 209.635,226.692 206.635,230.192 203.5,233.5 Z"/></g>
<g><path style="opacity:1" fill="#323537" d="M 201.5,232.5 C 200.299,234.909 198.633,236.909 196.5,238.5C 196.703,236.956 197.37,235.622 198.5,234.5C 198.167,234.167 197.833,233.833 197.5,233.5C 196.833,234.167 196.167,234.833 195.5,235.5C 194.494,235.062 194.494,234.396 195.5,233.5C 197.396,232.534 199.396,232.201 201.5,232.5 Z"/></g>
<g><path style="opacity:1" fill="#2d373e" d="M 203.5,233.5 C 203.663,235.857 203.497,238.19 203,240.5C 201.333,242.167 199.667,243.833 198,245.5C 197.121,241.488 194.621,239.488 190.5,239.5C 190.833,238.5 191.5,237.833 192.5,237.5C 192.489,238.441 192.989,239.108 194,239.5C 194.902,239.257 195.735,238.923 196.5,238.5C 196.328,239.492 196.662,240.158 197.5,240.5C 197.517,242.028 198.184,242.528 199.5,242C 201.797,240.737 202.63,238.903 202,236.5C 201.617,237.056 201.117,237.389 200.5,237.5C 200.738,235.596 201.738,234.262 203.5,233.5 Z"/></g>
<g><path style="opacity:1" fill="#4f7289" d="M 197.5,240.5 C 198.167,239.167 199.167,238.167 200.5,237.5C 201.117,237.389 201.617,237.056 202,236.5C 202.63,238.903 201.797,240.737 199.5,242C 198.184,242.528 197.517,242.028 197.5,240.5 Z"/></g>
<g><path style="opacity:1" fill="#242425" d="M 232.5,285.5 C 437.5,285.333 642.5,285.5 847.5,286C 864.529,293.087 868.362,304.587 859,320.5C 855.703,323.567 851.869,325.733 847.5,327C 642.5,327.667 437.5,327.667 232.5,327C 217.396,321.111 212.896,310.611 219,295.5C 222.579,290.731 227.079,287.397 232.5,285.5 Z"/></g>
<g><path style="opacity:1" fill="#fafafa" d="M 232.5,288.5 C 437.167,288.333 641.834,288.5 846.5,289C 855.653,290.957 860.653,296.624 861.5,306C 860.948,315.801 855.948,321.801 846.5,324C 641.833,324.667 437.167,324.667 232.5,324C 219.656,318.47 216.156,309.304 222,296.5C 224.855,292.789 228.355,290.123 232.5,288.5 Z"/></g>
<g><path style="opacity:1" fill="#828282" d="M 465.5,299.5 C 461.818,299.335 458.152,299.501 454.5,300C 455.938,300.219 457.271,300.719 458.5,301.5C 458.376,302.107 458.043,302.44 457.5,302.5C 456.432,301.566 455.099,301.232 453.5,301.5C 453.5,300.5 453.5,299.5 453.5,298.5C 457.702,298.183 461.702,298.517 465.5,299.5 Z"/></g>
<g><path style="opacity:1" fill="#808080" d="M 694.5,299.5 C 690.818,299.335 687.152,299.501 683.5,300C 684.833,300.333 686.167,300.667 687.5,301C 686.956,301.717 686.289,302.217 685.5,302.5C 684.791,301.596 683.791,301.263 682.5,301.5C 682.5,300.5 682.5,299.5 682.5,298.5C 686.702,298.183 690.702,298.517 694.5,299.5 Z"/></g>
<g><path style="opacity:1" fill="#181818" d="M 308.5,299.5 C 310.857,299.337 313.19,299.503 315.5,300C 316.876,302.54 316.21,304.54 313.5,306C 314.793,306.49 316.127,306.657 317.5,306.5C 317.192,304.076 317.526,301.743 318.5,299.5C 319.833,303.167 319.833,306.833 318.5,310.5C 314.697,308.986 310.697,307.986 306.5,307.5C 307.729,306.719 309.062,306.219 310.5,306C 307.441,304.603 306.775,302.437 308.5,299.5 Z"/></g>
<g><path style="opacity:1" fill="#181818" d="M 334.5,304.5 C 332.381,302.913 330.714,303.246 329.5,305.5C 331.396,306.466 333.396,306.799 335.5,306.5C 335.5,306.833 335.5,307.167 335.5,307.5C 330.833,307.5 326.167,307.5 321.5,307.5C 321.5,307.167 321.5,306.833 321.5,306.5C 323.604,306.799 325.604,306.466 327.5,305.5C 326.286,303.246 324.619,302.913 322.5,304.5C 322.793,303.357 322.793,302.023 322.5,300.5C 326.459,299.34 330.459,299.173 334.5,300C 333.692,300.308 333.025,300.808 332.5,301.5C 333.193,302.518 333.859,303.518 334.5,304.5 Z"/></g>
<g><path style="opacity:1" fill="#1e1e1e" d="M 343.5,299.5 C 344.5,299.5 345.5,299.5 346.5,299.5C 346.585,301.929 347.585,303.929 349.5,305.5C 347.671,306.282 346.171,305.616 345,303.5C 343.829,305.616 342.329,306.282 340.5,305.5C 342.415,303.929 343.415,301.929 343.5,299.5 Z"/></g>
<g><path style="opacity:1" fill="#070707" d="M 355.5,299.5 C 358.247,299.187 360.914,299.52 363.5,300.5C 361.604,301.466 359.604,301.799 357.5,301.5C 357.5,302.833 357.5,304.167 357.5,305.5C 359.924,305.192 362.257,305.526 364.5,306.5C 361.572,307.484 358.572,307.817 355.5,307.5C 355.5,304.833 355.5,302.167 355.5,299.5 Z"/></g>
<g><path style="opacity:1" fill="#060606" d="M 365.5,299.5 C 367.057,300.466 368.39,301.8 369.5,303.5C 368.173,305.311 367.173,307.311 366.5,309.5C 365.513,306.232 365.18,302.898 365.5,299.5 Z"/></g>
<g><path style="opacity:1" fill="#131313" d="M 380.5,299.5 C 380.5,304.167 380.5,308.833 380.5,313.5C 378.803,311.695 377.97,309.361 378,306.5C 377.591,311.973 375.258,313.306 371,310.5C 370.211,306.909 370.378,303.409 371.5,300C 375.415,298.936 377.582,300.436 378,304.5C 378.05,302.256 378.883,300.589 380.5,299.5 Z"/></g>
<g><path style="opacity:1" fill="#606060" d="M 385.5,306.5 C 385.5,306.833 385.5,307.167 385.5,307.5C 384.532,309.607 384.198,311.941 384.5,314.5C 383.041,314.567 381.708,314.234 380.5,313.5C 380.5,308.833 380.5,304.167 380.5,299.5C 381.708,298.766 383.041,298.433 384.5,298.5C 384.194,301.385 384.527,304.052 385.5,306.5 Z"/></g>
<g><path style="opacity:1" fill="#060606" d="M 386.5,299.5 C 388.048,299.821 388.715,300.821 388.5,302.5C 391.898,302.18 395.232,302.513 398.5,303.5C 394.555,304.491 390.555,304.824 386.5,304.5C 386.5,302.833 386.5,301.167 386.5,299.5 Z"/></g>
<g><path style="opacity:1" fill="#212121" d="M 406.5,298.5 C 411.166,299.273 412.166,301.44 409.5,305C 409.706,306.865 410.372,308.532 411.5,310C 411.333,310.5 411.167,311 411,311.5C 408.538,307.565 406.538,307.898 405,312.5C 404.5,312 404,311.5 403.5,311C 406.794,308.058 407.128,304.891 404.5,301.5C 405.612,300.735 406.279,299.735 406.5,298.5 Z"/></g>
<g><path style="opacity:1" fill="#0c0c0c" d="M 412.5,299.5 C 413.805,301.397 414.471,303.731 414.5,306.5C 414.167,308.833 413.833,311.167 413.5,313.5C 412.922,310.631 411.922,307.965 410.5,305.5C 412.104,303.821 412.771,301.821 412.5,299.5 Z"/></g>
<g><path style="opacity:1" fill="#424242" d="M 415.5,298.5 C 416.496,298.414 417.329,298.748 418,299.5C 418.499,304.489 418.666,309.489 418.5,314.5C 417.5,314.5 416.5,314.5 415.5,314.5C 415.5,309.167 415.5,303.833 415.5,298.5 Z"/></g>
<g><path style="opacity:1" fill="#0d0d0d" d="M 427.5,299.5 C 427.5,301.167 427.5,302.833 427.5,304.5C 425.473,304.338 423.473,304.505 421.5,305C 423.9,305.186 426.234,305.686 428.5,306.5C 425.572,307.484 422.572,307.817 419.5,307.5C 419.5,305.833 419.5,304.167 419.5,302.5C 427.394,302.473 427.394,301.807 419.5,300.5C 422.086,299.52 424.753,299.187 427.5,299.5 Z"/></g>
<g><path style="opacity:1" fill="#1b1b1b" d="M 432.5,299.5 C 432.5,302.167 432.5,304.833 432.5,307.5C 430.866,306.793 429.532,305.627 428.5,304C 429.641,303.259 429.641,302.425 428.5,301.5C 429.577,300.295 430.91,299.628 432.5,299.5 Z"/></g>
<g><path style="opacity:1" fill="#212121" d="M 436.5,299.5 C 439.044,299.104 441.211,299.771 443,301.5C 443.667,304.167 443.667,306.833 443,309.5C 440.633,312.932 437.966,313.265 435,310.5C 434.013,306.525 434.513,302.859 436.5,299.5 Z"/></g>
<g><path style="opacity:1" fill="#8e8e8e" d="M 445.5,299.5 C 444.897,304.619 445.564,309.285 447.5,313.5C 446.791,314.404 445.791,314.737 444.5,314.5C 444.179,309.305 444.513,304.305 445.5,299.5 Z"/></g>
<g><path style="opacity:1" fill="#171717" d="M 445.5,299.5 C 447.436,303.715 448.103,308.381 447.5,313.5C 445.564,309.285 444.897,304.619 445.5,299.5 Z"/></g>
<g><path style="opacity:1" fill="#181818" d="M 465.5,299.5 C 464.77,301.045 463.437,301.878 461.5,302C 463.002,302.583 464.335,303.416 465.5,304.5C 465.167,304.833 464.833,305.167 464.5,305.5C 461.356,302.931 458.19,302.931 455,305.5C 454.5,305.167 454,304.833 453.5,304.5C 454.766,303.638 456.099,302.971 457.5,302.5C 458.043,302.44 458.376,302.107 458.5,301.5C 457.271,300.719 455.938,300.219 454.5,300C 458.152,299.501 461.818,299.335 465.5,299.5 Z"/></g>
<g><path style="opacity:1" fill="#afafaf" d="M 481.5,299.5 C 482.167,299.5 482.5,299.833 482.5,300.5C 483.514,301.765 485.014,302.431 487,302.5C 488.986,302.431 490.486,301.765 491.5,300.5C 492.167,300.167 492.833,299.833 493.5,299.5C 492.897,304.619 493.564,309.285 495.5,313.5C 494.791,314.404 493.791,314.737 492.5,314.5C 492.823,310.774 492.489,307.107 491.5,303.5C 490.893,303.624 490.56,303.957 490.5,304.5C 485.569,302.468 483.236,304.135 483.5,309.5C 482.833,311.167 482.167,312.833 481.5,314.5C 481.5,309.5 481.5,304.5 481.5,299.5 Z"/></g>
<g><path style="opacity:1" fill="#1a1a1a" d="M 491.5,300.5 C 490.486,301.765 488.986,302.431 487,302.5C 485.014,302.431 483.514,301.765 482.5,300.5C 484.492,300.672 486.158,300.005 487.5,298.5C 488.524,299.853 489.857,300.52 491.5,300.5 Z"/></g>
<g><path style="opacity:1" fill="#131313" d="M 493.5,299.5 C 494.997,301.562 496.33,303.895 497.5,306.5C 495.827,308.523 495.16,310.856 495.5,313.5C 493.564,309.285 492.897,304.619 493.5,299.5 Z"/></g>
<g><path style="opacity:1" fill="#121212" d="M 508.5,301.5 C 509.222,301.082 509.722,300.416 510,299.5C 510.667,304.167 510.667,308.833 510,313.5C 509.79,311.942 509.29,310.609 508.5,309.5C 508.44,308.957 508.107,308.624 507.5,308.5C 506.614,309.325 506.281,310.325 506.5,311.5C 503.833,311.5 501.167,311.5 498.5,311.5C 498.5,307.5 498.5,303.5 498.5,299.5C 502.083,299.232 505.416,299.899 508.5,301.5 Z"/></g>
<g><path style="opacity:1" fill="#5e5e5e" d="M 508.5,309.5 C 509.29,310.609 509.79,311.942 510,313.5C 510.667,308.833 510.667,304.167 510,299.5C 509.722,300.416 509.222,301.082 508.5,301.5C 508.5,300.5 508.5,299.5 508.5,298.5C 509.5,298.5 510.5,298.5 511.5,298.5C 511.5,303.833 511.5,309.167 511.5,314.5C 510.5,314.5 509.5,314.5 508.5,314.5C 508.5,312.833 508.5,311.167 508.5,309.5 Z"/></g>
<g><path style="opacity:1" fill="#151515" d="M 527.5,300.5 C 524.793,303.882 525.126,307.048 528.5,310C 527.944,310.383 527.611,310.883 527.5,311.5C 526.288,310.77 525.288,309.77 524.5,308.5C 523.713,309.242 523.047,310.075 522.5,311C 521.668,311.688 521.002,311.521 520.5,310.5C 522.623,308.255 523.623,305.588 523.5,302.5C 522.325,302.719 521.325,302.386 520.5,301.5C 521.948,300.646 523.281,299.646 524.5,298.5C 525.265,299.612 526.265,300.279 527.5,300.5 Z"/></g>
<g><path style="opacity:1" fill="#191919" d="M 529.5,299.5 C 531.436,303.715 532.103,308.381 531.5,313.5C 530.833,313.5 530.167,313.5 529.5,313.5C 529.89,310.534 529.223,307.868 527.5,305.5C 529.104,303.821 529.771,301.821 529.5,299.5 Z"/></g>
<g><path style="opacity:1" fill="#a1a1a1" d="M 529.5,299.5 C 531.167,298.167 532.833,298.167 534.5,299.5C 532.564,303.715 531.897,308.381 532.5,313.5C 532.167,313.5 531.833,313.5 531.5,313.5C 532.103,308.381 531.436,303.715 529.5,299.5 Z"/></g>
<g><path style="opacity:1" fill="#1a1a1a" d="M 534.5,299.5 C 534.827,304.544 534.494,309.544 533.5,314.5C 532.893,314.376 532.56,314.043 532.5,313.5C 531.897,308.381 532.564,303.715 534.5,299.5 Z"/></g>
<g><path style="opacity:1" fill="#161616" d="M 543.5,299.5 C 543.5,301.167 543.5,302.833 543.5,304.5C 541.801,304.34 540.134,304.506 538.5,305C 540.577,305.192 542.577,305.692 544.5,306.5C 541.914,307.48 539.247,307.813 536.5,307.5C 535.549,306.081 535.216,304.415 535.5,302.5C 542.626,302.637 542.959,301.97 536.5,300.5C 538.743,299.526 541.076,299.192 543.5,299.5 Z"/></g>
<g><path style="opacity:1" fill="#000000" d="M 546.5,299.5 C 548.369,301.635 549.036,304.302 548.5,307.5C 547.069,306.554 545.736,305.388 544.5,304C 547.167,303 547.167,302 544.5,301C 545.416,300.722 546.082,300.222 546.5,299.5 Z"/></g>
<g><path style="opacity:1" fill="#222222" d="M 552.5,299.5 C 555.044,299.104 557.211,299.771 559,301.5C 560.023,305.317 559.523,308.817 557.5,312C 554.692,312.92 552.525,312.087 551,309.5C 550.037,305.851 550.537,302.518 552.5,299.5 Z"/></g>
<g><path style="opacity:1" fill="#080808" d="M 561.5,299.5 C 562.809,301.571 563.475,304.071 563.5,307C 563.167,309.5 562.833,312 562.5,314.5C 561.506,309.544 561.173,304.544 561.5,299.5 Z"/></g>
<g><path style="opacity:1" fill="#070707" d="M 579.5,299.5 C 581.015,301.207 582.348,303.207 583.5,305.5C 582.047,308.298 581.047,311.298 580.5,314.5C 579.506,309.544 579.173,304.544 579.5,299.5 Z"/></g>
<g><path style="opacity:1" fill="#232323" d="M 587.5,298.5 C 589.589,298.857 591.589,299.523 593.5,300.5C 590.167,301.833 586.833,301.833 583.5,300.5C 584.949,299.828 586.282,299.161 587.5,298.5 Z"/></g>
<g><path style="opacity:1" fill="#101010" d="M 597.5,304.5 C 596.9,305.9 595.9,306.9 594.5,307.5C 594.187,304.753 594.52,302.086 595.5,299.5C 596.354,300.948 597.354,302.281 598.5,303.5C 598.376,304.107 598.043,304.44 597.5,304.5 Z"/></g>
<g><path style="opacity:1" fill="#1d1d1d" d="M 616.5,299.5 C 619.85,299.335 623.183,299.502 626.5,300C 627.935,302.267 627.602,304.267 625.5,306C 622.5,306.667 619.5,306.667 616.5,306C 615.232,303.837 615.232,301.67 616.5,299.5 Z"/></g>
<g><path style="opacity:1" fill="#090909" d="M 633.5,299.5 C 635.5,299.5 637.5,299.5 639.5,299.5C 639.907,306.049 640.907,306.049 642.5,299.5C 643.833,304.167 643.833,308.833 642.5,313.5C 641.526,311.257 641.192,308.924 641.5,306.5C 640.448,306.351 639.448,306.517 638.5,307C 637.743,308.512 636.743,309.846 635.5,311C 634.668,311.688 634.002,311.521 633.5,310.5C 636.199,308.102 637.533,305.102 637.5,301.5C 635.517,301.843 634.183,301.176 633.5,299.5 Z"/></g>
<g><path style="opacity:1" fill="#2d2d2d" d="M 646.5,299.5 C 646.5,304.5 646.5,309.5 646.5,314.5C 645.188,312.257 644.522,309.59 644.5,306.5C 644.833,303.833 645.167,301.167 645.5,298.5C 646.107,298.624 646.44,298.957 646.5,299.5 Z"/></g>
<g><path style="opacity:1" fill="#919191" d="M 646.5,299.5 C 647.167,300.167 647.833,300.833 648.5,301.5C 648.5,302.5 648.5,303.5 648.5,304.5C 647.833,307.833 647.167,311.167 646.5,314.5C 646.5,309.5 646.5,304.5 646.5,299.5 Z"/></g>
<g><path style="opacity:1" fill="#212121" d="M 665.5,299.5 C 668.044,299.104 670.211,299.771 672,301.5C 672.667,304.167 672.667,306.833 672,309.5C 669.633,312.932 666.966,313.265 664,310.5C 663.013,306.525 663.513,302.859 665.5,299.5 Z"/></g>
<g><path style="opacity:1" fill="#8e8e8e" d="M 674.5,299.5 C 673.897,304.619 674.564,309.285 676.5,313.5C 675.791,314.404 674.791,314.737 673.5,314.5C 673.179,309.305 673.513,304.305 674.5,299.5 Z"/></g>
<g><path style="opacity:1" fill="#171717" d="M 674.5,299.5 C 676.436,303.715 677.103,308.381 676.5,313.5C 674.564,309.285 673.897,304.619 674.5,299.5 Z"/></g>
<g><path style="opacity:1" fill="#151515" d="M 694.5,299.5 C 694.423,300.75 693.756,301.583 692.5,302C 695.113,303.071 695.113,303.905 692.5,304.5C 691.469,303.751 690.302,303.085 689,302.5C 687.698,303.085 686.531,303.751 685.5,304.5C 681.5,303.833 681.5,303.167 685.5,302.5C 686.289,302.217 686.956,301.717 687.5,301C 686.167,300.667 684.833,300.333 683.5,300C 687.152,299.501 690.818,299.335 694.5,299.5 Z"/></g>
<g><path style="opacity:1" fill="#151515" d="M 707.5,310.5 C 708.263,311.268 709.263,311.768 710.5,312C 705.845,312.499 701.179,312.666 696.5,312.5C 696.5,312.167 696.5,311.833 696.5,311.5C 697.833,311.5 699.167,311.5 700.5,311.5C 699.36,308.975 698.693,306.308 698.5,303.5C 701.713,303.81 704.713,303.477 707.5,302.5C 704.642,301.834 701.642,301.167 698.5,300.5C 702.107,299.511 705.774,299.177 709.5,299.5C 709.5,301.5 709.5,303.5 709.5,305.5C 706.482,305.335 703.482,305.502 700.5,306C 703.882,306.176 707.215,306.676 710.5,307.5C 709.007,308.141 708.007,309.141 707.5,310.5 Z"/></g>
<g><path style="opacity:1" fill="#131313" d="M 725.5,305.5 C 725.5,306.167 725.5,306.833 725.5,307.5C 722.102,307.82 718.768,307.487 715.5,306.5C 717.078,305.702 718.744,305.202 720.5,305C 719.207,304.51 717.873,304.343 716.5,304.5C 716.5,302.833 716.5,301.167 716.5,299.5C 719.572,299.183 722.572,299.516 725.5,300.5C 723.234,301.314 720.9,301.814 718.5,302C 720.9,302.186 723.234,302.686 725.5,303.5C 721.689,304.738 721.689,305.404 725.5,305.5 Z"/></g>
<g><path style="opacity:1" fill="#000000" d="M 731.5,299.5 C 733.402,302.337 734.069,305.671 733.5,309.5C 735.924,309.192 738.257,309.526 740.5,310.5C 737.572,311.484 734.572,311.817 731.5,311.5C 731.5,307.5 731.5,303.5 731.5,299.5 Z"/></g>
<g><path style="opacity:1" fill="#141414" d="M 741.5,299.5 C 742.805,301.397 743.471,303.731 743.5,306.5C 743.471,309.269 742.805,311.603 741.5,313.5C 741.5,308.833 741.5,304.167 741.5,299.5 Z"/></g>
<g><path style="opacity:1" fill="#838383" d="M 741.5,299.5 C 742.209,298.596 743.209,298.263 744.5,298.5C 744.5,303.833 744.5,309.167 744.5,314.5C 743.209,314.737 742.209,314.404 741.5,313.5C 742.805,311.603 743.471,309.269 743.5,306.5C 743.471,303.731 742.805,301.397 741.5,299.5 Z"/></g>
<g><path style="opacity:1" fill="#636363" d="M 758.5,304.5 C 757.698,303.048 757.198,301.382 757,299.5C 756.333,304.167 756.333,308.833 757,313.5C 757.186,310.964 757.686,308.631 758.5,306.5C 758.5,309.167 758.5,311.833 758.5,314.5C 757.5,314.5 756.5,314.5 755.5,314.5C 755.737,313.209 755.404,312.209 754.5,311.5C 754.5,310.833 754.5,310.167 754.5,309.5C 755.482,306.038 755.815,302.371 755.5,298.5C 756.5,298.5 757.5,298.5 758.5,298.5C 758.5,300.5 758.5,302.5 758.5,304.5 Z"/></g>
<g><path style="opacity:1" fill="#000000" d="M 758.5,304.5 C 758.833,304.5 759.167,304.5 759.5,304.5C 759.5,305.167 759.5,305.833 759.5,306.5C 759.167,306.5 758.833,306.5 758.5,306.5C 757.686,308.631 757.186,310.964 757,313.5C 756.333,308.833 756.333,304.167 757,299.5C 757.198,301.382 757.698,303.048 758.5,304.5 Z"/></g>
<g><path style="opacity:1" fill="#838383" d="M 763.5,299.5 C 761.631,301.635 760.964,304.302 761.5,307.5C 760.833,307.167 760.167,306.833 759.5,306.5C 759.5,305.833 759.5,305.167 759.5,304.5C 760.461,302.735 760.795,300.735 760.5,298.5C 761.791,298.263 762.791,298.596 763.5,299.5 Z"/></g>
<g><path style="opacity:1" fill="#141414" d="M 763.5,299.5 C 763.82,302.898 763.487,306.232 762.5,309.5C 761.702,309.043 761.369,308.376 761.5,307.5C 760.964,304.302 761.631,301.635 763.5,299.5 Z"/></g>
<g><path style="opacity:1" fill="#242424" d="M 481.5,299.5 C 481.5,304.5 481.5,309.5 481.5,314.5C 479.78,312.342 478.947,309.675 479,306.5C 478.503,308.81 478.337,311.143 478.5,313.5C 475.962,312.323 473.629,310.656 471.5,308.5C 470.713,309.242 470.047,310.075 469.5,311C 468.668,311.688 468.002,311.521 467.5,310.5C 470.739,307.346 471.073,304.013 468.5,300.5C 471.768,299.513 475.102,299.18 478.5,299.5C 478.34,301.199 478.506,302.866 479,304.5C 479.05,302.256 479.883,300.589 481.5,299.5 Z"/></g>
<g><path style="opacity:1" fill="#090909" d="M 569.5,299.5 C 572.247,299.187 574.914,299.52 577.5,300.5C 575.604,301.466 573.604,301.799 571.5,301.5C 571.5,304.167 571.5,306.833 571.5,309.5C 573.924,309.192 576.257,309.526 578.5,310.5C 575.572,311.484 572.572,311.817 569.5,311.5C 569.5,307.5 569.5,303.5 569.5,299.5 Z"/></g>
<g><path style="opacity:1" fill="#1c1c1c" d="M 654.5,306.5 C 653.5,306.5 652.5,306.5 651.5,306.5C 649.973,306.573 648.973,305.906 648.5,304.5C 648.5,303.5 648.5,302.5 648.5,301.5C 648.611,300.883 648.944,300.383 649.5,300C 653.175,298.703 655.842,299.703 657.5,303C 657.022,304.642 656.022,305.809 654.5,306.5 Z"/></g>
<g><path style="opacity:1" fill="#212121" d="M 754.5,309.5 C 754.5,310.167 754.5,310.833 754.5,311.5C 751.5,311.5 748.5,311.5 745.5,311.5C 745.5,307.5 745.5,303.5 745.5,299.5C 748.247,299.187 750.914,299.52 753.5,300.5C 751.955,301.452 750.288,301.785 748.5,301.5C 748.5,304.167 748.5,306.833 748.5,309.5C 750.5,309.5 752.5,309.5 754.5,309.5 Z"/></g>
<g><path style="opacity:1" fill="#ededed" d="M 309.5,301.5 C 310.978,301.238 312.311,301.571 313.5,302.5C 312.833,302.833 312.167,303.167 311.5,303.5C 310.287,303.253 309.62,302.586 309.5,301.5 Z"/></g>
<g><path style="opacity:1" fill="#c6c6c6" d="M 327.5,300.5 C 329.337,300.639 329.67,301.306 328.5,302.5C 327.702,302.043 327.369,301.376 327.5,300.5 Z"/></g>
<g><path style="opacity:1" fill="#b4b4b4" d="M 432.5,299.5 C 430.91,299.628 429.577,300.295 428.5,301.5C 429.641,302.425 429.641,303.259 428.5,304C 429.532,305.627 430.866,306.793 432.5,307.5C 432.5,307.833 432.5,308.167 432.5,308.5C 428.5,308.5 424.5,308.5 420.5,308.5C 419.833,308.5 419.5,308.167 419.5,307.5C 422.572,307.817 425.572,307.484 428.5,306.5C 426.234,305.686 423.9,305.186 421.5,305C 423.473,304.505 425.473,304.338 427.5,304.5C 427.5,302.833 427.5,301.167 427.5,299.5C 429.334,298.506 431.001,298.506 432.5,299.5 Z"/></g>
<g><path style="opacity:1" fill="#e5e5e5" d="M 437.5,301.5 C 438.5,301.5 439.5,301.5 440.5,301.5C 440.664,304.187 440.497,306.854 440,309.5C 437.106,310.615 435.939,309.448 436.5,306C 436.605,304.408 436.939,302.908 437.5,301.5 Z"/></g>
<g><path style="opacity:1" fill="#efefef" d="M 553.5,301.5 C 554.822,301.33 555.989,301.663 557,302.5C 557.497,304.81 557.663,307.143 557.5,309.5C 556.167,309.5 554.833,309.5 553.5,309.5C 553.5,306.833 553.5,304.167 553.5,301.5 Z"/></g>
<g><path style="opacity:1" fill="#dfdfdf" d="M 617.5,301.5 C 620.247,301.187 622.914,301.52 625.5,302.5C 625.291,303.086 624.957,303.586 624.5,304C 622.19,304.497 619.857,304.663 617.5,304.5C 617.5,303.5 617.5,302.5 617.5,301.5 Z"/></g>
<g><path style="opacity:1" fill="#f1f1f1" d="M 650.5,301.5 C 651.833,301.5 653.167,301.5 654.5,301.5C 654.5,302.5 654.5,303.5 654.5,304.5C 653.167,304.5 651.833,304.5 650.5,304.5C 650.5,303.5 650.5,302.5 650.5,301.5 Z"/></g>
<g><path style="opacity:1" fill="#e5e5e5" d="M 666.5,301.5 C 667.5,301.5 668.5,301.5 669.5,301.5C 669.664,304.187 669.497,306.854 669,309.5C 666.106,310.615 664.939,309.448 665.5,306C 665.605,304.408 665.939,302.908 666.5,301.5 Z"/></g>
<g><path style="opacity:1" fill="#e9e9e9" d="M 473.5,301.5 C 474.725,302.152 475.392,303.319 475.5,305C 475.333,306.167 475.167,307.333 475,308.5C 473.648,306.406 473.148,304.073 473.5,301.5 Z"/></g>
<g><path style="opacity:1" fill="#d9d9d9" d="M 500.5,301.5 C 501.833,301.5 503.167,301.5 504.5,301.5C 504.5,304.167 504.5,306.833 504.5,309.5C 503.167,309.5 501.833,309.5 500.5,309.5C 500.5,306.833 500.5,304.167 500.5,301.5 Z"/></g>
<g><path style="opacity:1" fill="#090909" d="M 591.5,306.5 C 589.5,306.5 587.5,306.5 585.5,306.5C 584.209,305.458 584.209,304.292 585.5,303C 587.81,302.503 590.143,302.337 592.5,302.5C 592.768,304.099 592.434,305.432 591.5,306.5 Z"/></g>
<g><path style="opacity:1" fill="#cacaca" d="M 372.5,301.5 C 373.5,301.5 374.5,301.5 375.5,301.5C 374.5,313.5 373.5,313.5 372.5,301.5 Z"/></g>
<g><path style="opacity:1" fill="#161616" d="M 490.5,304.5 C 492.881,309.901 491.215,312.401 485.5,312C 484.619,311.292 483.953,310.458 483.5,309.5C 483.236,304.135 485.569,302.468 490.5,304.5 Z"/></g>
<g><path style="opacity:1" fill="#a3a3a3" d="M 529.5,299.5 C 529.771,301.821 529.104,303.821 527.5,305.5C 529.223,307.868 529.89,310.534 529.5,313.5C 528.833,312.833 528.167,312.167 527.5,311.5C 527.611,310.883 527.944,310.383 528.5,310C 525.126,307.048 524.793,303.882 527.5,300.5C 528.167,300.167 528.833,299.833 529.5,299.5 Z"/></g>
<g><path style="opacity:1" fill="#969696" d="M 692.5,304.5 C 691.508,304.328 690.842,304.662 690.5,305.5C 689.609,304.89 688.609,304.557 687.5,304.5C 686.833,304.5 686.167,304.5 685.5,304.5C 686.531,303.751 687.698,303.085 689,302.5C 690.302,303.085 691.469,303.751 692.5,304.5 Z"/></g>
<g><path style="opacity:1" fill="#878787" d="M 707.5,302.5 C 704.713,303.477 701.713,303.81 698.5,303.5C 698.693,306.308 699.36,308.975 700.5,311.5C 699.167,311.5 697.833,311.5 696.5,311.5C 697.263,310.732 698.263,310.232 699.5,310C 697.709,307.894 697.042,305.394 697.5,302.5C 700.833,302.5 704.167,302.5 707.5,302.5 Z"/></g>
<g><path style="opacity:1" fill="#fefffe" d="M 506.5,304.5 C 508.337,304.639 508.67,305.306 507.5,306.5C 506.702,306.043 506.369,305.376 506.5,304.5 Z"/></g>
<g><path style="opacity:1" fill="#909090" d="M 586.5,303.5 C 587.978,303.238 589.311,303.571 590.5,304.5C 589.833,304.833 589.167,305.167 588.5,305.5C 587.287,305.253 586.62,304.586 586.5,303.5 Z"/></g>
<g><path style="opacity:1" fill="#0d0d0d" d="M 687.5,304.5 C 688.609,304.557 689.609,304.89 690.5,305.5C 692.604,305.201 694.604,305.534 696.5,306.5C 691.5,307.833 686.5,307.833 681.5,306.5C 683.631,305.831 685.631,305.165 687.5,304.5 Z"/></g>
<g><path style="opacity:1" fill="#8a8a8a" d="M 321.5,306.5 C 321.833,305.833 322.167,305.167 322.5,304.5C 324.619,302.913 326.286,303.246 327.5,305.5C 325.604,306.466 323.604,306.799 321.5,306.5 Z"/></g>
<g><path style="opacity:1" fill="#8a8a8a" d="M 334.5,304.5 C 334.833,305.167 335.167,305.833 335.5,306.5C 333.396,306.799 331.396,306.466 329.5,305.5C 330.714,303.246 332.381,302.913 334.5,304.5 Z"/></g>
<g><path style="opacity:1" fill="#1a1a1a" d="M 458.5,305.5 C 461.522,305.981 464.522,306.647 467.5,307.5C 462.5,308.833 457.5,308.833 452.5,307.5C 454.631,306.831 456.631,306.165 458.5,305.5 Z"/></g>
<g><path style="opacity:1" fill="#e6e6e6" d="M 485.5,305.5 C 489.161,305.35 490.161,306.85 488.5,310C 487.551,310.617 486.718,310.451 486,309.5C 485.51,308.207 485.343,306.873 485.5,305.5 Z"/></g>
<g><path style="opacity:1" fill="#777777" d="M 597.5,304.5 C 597.802,307.059 597.468,309.393 596.5,311.5C 596.5,310.5 596.5,309.5 596.5,308.5C 592.833,308.5 589.167,308.5 585.5,308.5C 585.5,307.833 585.5,307.167 585.5,306.5C 587.5,306.5 589.5,306.5 591.5,306.5C 592.209,307.404 593.209,307.737 594.5,307.5C 595.9,306.9 596.9,305.9 597.5,304.5 Z"/></g>
<g><path style="opacity:1" fill="#565656" d="M 651.5,306.5 C 652.5,306.5 653.5,306.5 654.5,306.5C 655.568,307.434 656.901,307.768 658.5,307.5C 658.5,304.5 658.5,301.5 658.5,298.5C 659.5,298.5 660.5,298.5 661.5,298.5C 661.5,303.833 661.5,309.167 661.5,314.5C 657.5,314.5 653.5,314.5 649.5,314.5C 649.132,311.467 649.798,308.8 651.5,306.5 Z"/></g>
<g><path style="opacity:1" fill="#3f3f3f" d="M 385.5,306.5 C 390.214,306.173 394.88,306.507 399.5,307.5C 394.682,308.812 390.015,308.812 385.5,307.5C 385.5,307.167 385.5,306.833 385.5,306.5 Z"/></g>
<g><path style="opacity:1" fill="#b5b5b5" d="M 543.5,299.5 C 544.5,299.5 545.5,299.5 546.5,299.5C 546.082,300.222 545.416,300.722 544.5,301C 547.167,302 547.167,303 544.5,304C 545.736,305.388 547.069,306.554 548.5,307.5C 548.5,307.833 548.5,308.167 548.5,308.5C 544.351,307.92 540.684,308.586 537.5,310.5C 536.596,309.791 536.263,308.791 536.5,307.5C 539.247,307.813 541.914,307.48 544.5,306.5C 542.577,305.692 540.577,305.192 538.5,305C 540.134,304.506 541.801,304.34 543.5,304.5C 543.5,302.833 543.5,301.167 543.5,299.5 Z"/></g>
<g><path style="opacity:1" fill="#7d7d7d" d="M 321.5,307.5 C 326.167,307.5 330.833,307.5 335.5,307.5C 335.167,308.167 334.833,308.833 334.5,309.5C 330.5,309.5 326.5,309.5 322.5,309.5C 322.167,308.833 321.833,308.167 321.5,307.5 Z"/></g>
<g><path style="opacity:1" fill="#1f1f1f" d="M 350.5,299.5 C 352.078,300.066 353.412,301.066 354.5,302.5C 353.102,304.13 352.102,305.964 351.5,308C 354.167,310 354.167,312 351.5,314C 348.833,314.667 346.167,314.667 343.5,314C 341.398,312.267 341.065,310.267 342.5,308C 345.146,307.503 347.813,307.336 350.5,307.5C 350.5,304.833 350.5,302.167 350.5,299.5 Z"/></g>
<g><path style="opacity:1" fill="#1d1d1d" d="M 420.5,308.5 C 424.5,308.5 428.5,308.5 432.5,308.5C 432.5,310.5 432.5,312.5 432.5,314.5C 431.5,314.5 430.5,314.5 429.5,314.5C 429.5,313.167 429.5,311.833 429.5,310.5C 425.988,311.055 422.988,310.388 420.5,308.5 Z"/></g>
<g><path style="opacity:1" fill="#070707" d="M 548.5,308.5 C 548.799,310.604 548.466,312.604 547.5,314.5C 546.571,313.311 546.238,311.978 546.5,310.5C 543.5,310.5 540.5,310.5 537.5,310.5C 540.684,308.586 544.351,307.92 548.5,308.5 Z"/></g>
<g><path style="opacity:1" fill="#060606" d="M 585.5,308.5 C 589.167,308.5 592.833,308.5 596.5,308.5C 596.5,309.5 596.5,310.5 596.5,311.5C 584.5,311.833 584.5,312.167 596.5,312.5C 593.038,313.482 589.371,313.815 585.5,313.5C 585.5,312.5 585.5,311.5 585.5,310.5C 588.518,310.665 591.518,310.498 594.5,310C 591.305,309.819 588.305,309.319 585.5,308.5 Z"/></g>
<g><path style="opacity:1" fill="#1b1b1b" d="M 612.5,309.5 C 612.5,310.5 612.5,311.5 612.5,312.5C 610.883,313.972 608.883,314.639 606.5,314.5C 600.972,314.517 599.639,312.35 602.5,308C 605.167,307.667 607.833,307.333 610.5,307C 608.924,306.56 607.59,305.727 606.5,304.5C 604.368,306.117 602.035,306.617 599.5,306C 601.734,305.031 603.734,303.698 605.5,302C 603.744,301.798 602.078,301.298 600.5,300.5C 602.743,299.526 605.076,299.192 607.5,299.5C 607.5,300.833 607.5,302.167 607.5,303.5C 610.797,303.671 611.131,303.005 608.5,301.5C 609.328,300.585 610.328,299.919 611.5,299.5C 612.272,302.983 612.606,306.316 612.5,309.5 Z"/></g>
<g><path style="opacity:1" fill="#0f0f0f" d="M 614.5,307.5 C 619.214,307.173 623.88,307.507 628.5,308.5C 626.604,309.466 624.604,309.799 622.5,309.5C 622.5,310.833 622.5,312.167 622.5,313.5C 620.824,312.817 620.157,311.483 620.5,309.5C 617.918,309.975 615.918,309.308 614.5,307.5 Z"/></g>
<g><path style="opacity:1" fill="#000000" d="M 650.5,308.5 C 653.833,308.5 657.167,308.5 660.5,308.5C 660.5,310.167 660.5,311.833 660.5,313.5C 657.167,313.5 653.833,313.5 650.5,313.5C 650.5,311.833 650.5,310.167 650.5,308.5 Z"/></g>
<g><path style="opacity:1" fill="#242424" d="M 683.5,308.5 C 687.182,308.335 690.848,308.501 694.5,309C 695.86,310.938 695.527,312.604 693.5,314C 690.5,314.667 687.5,314.667 684.5,314C 682.365,312.444 682.032,310.611 683.5,308.5 Z"/></g>
<g><path style="opacity:1" fill="#333333" d="M 308.5,309.5 C 312.258,311.183 316.258,311.849 320.5,311.5C 320.5,312.5 320.5,313.5 320.5,314.5C 316.5,314.5 312.5,314.5 308.5,314.5C 308.5,312.833 308.5,311.167 308.5,309.5 Z"/></g>
<g><path style="opacity:1" fill="#060606" d="M 322.5,310.5 C 322.5,310.167 322.5,309.833 322.5,309.5C 326.5,309.5 330.5,309.5 334.5,309.5C 334.5,310.833 334.5,312.167 334.5,313.5C 332.952,313.179 332.285,312.179 332.5,310.5C 329.167,310.5 325.833,310.5 322.5,310.5 Z"/></g>
<g><path style="opacity:1" fill="#c4c4c4" d="M 343.5,309.5 C 345.833,309.5 348.167,309.5 350.5,309.5C 350.5,310.5 350.5,311.5 350.5,312.5C 348.473,312.662 346.473,312.495 344.5,312C 343.748,311.329 343.414,310.496 343.5,309.5 Z"/></g>
<g><path style="opacity:1" fill="#0e0e0e" d="M 358.5,308.5 C 358.5,309.833 358.5,311.167 358.5,312.5C 361.518,312.335 364.518,312.502 367.5,313C 363.848,313.499 360.182,313.665 356.5,313.5C 356.077,311.219 356.744,309.552 358.5,308.5 Z"/></g>
<g><path style="opacity:1" fill="#323232" d="M 386.5,309.5 C 390.258,311.183 394.258,311.849 398.5,311.5C 398.5,312.5 398.5,313.5 398.5,314.5C 394.5,314.5 390.5,314.5 386.5,314.5C 386.5,312.833 386.5,311.167 386.5,309.5 Z"/></g>
<g><path style="opacity:1" fill="#050505" d="M 454.5,309.5 C 455.833,309.5 456.5,310.167 456.5,311.5C 459.305,312.319 462.305,312.819 465.5,313C 461.848,313.499 458.182,313.665 454.5,313.5C 454.5,312.167 454.5,310.833 454.5,309.5 Z"/></g>
<g><path style="opacity:1" fill="#b6b6b6" d="M 614.5,307.5 C 615.918,309.308 617.918,309.975 620.5,309.5C 620.157,311.483 620.824,312.817 622.5,313.5C 621.791,314.404 620.791,314.737 619.5,314.5C 619.5,313.167 619.5,311.833 619.5,310.5C 616.789,310.185 614.456,310.852 612.5,312.5C 612.5,311.5 612.5,310.5 612.5,309.5C 613.167,308.833 613.833,308.167 614.5,307.5 Z"/></g>
<g><path style="opacity:1" fill="#c1c1c1" d="M 702.5,308.5 C 703.5,308.5 704.5,308.5 705.5,308.5C 705.5,309.5 705.5,310.5 705.5,311.5C 704.5,311.5 703.5,311.5 702.5,311.5C 702.5,310.5 702.5,309.5 702.5,308.5 Z"/></g>
<g><path style="opacity:1" fill="#777777" d="M 322.5,310.5 C 325.833,310.5 329.167,310.5 332.5,310.5C 332.285,312.179 332.952,313.179 334.5,313.5C 333.791,314.404 332.791,314.737 331.5,314.5C 331.5,313.5 331.5,312.5 331.5,311.5C 328.287,311.81 325.287,311.477 322.5,310.5 Z"/></g>
<g><path style="opacity:1" fill="#cdcdcd" d="M 603.5,309.5 C 605.833,309.5 608.167,309.5 610.5,309.5C 610.5,310.5 610.5,311.5 610.5,312.5C 608.143,312.663 605.81,312.497 603.5,312C 602.402,311.23 602.402,310.397 603.5,309.5 Z"/></g>
<g><path style="opacity:1" fill="#939393" d="M 651.5,309.5 C 654.167,309.5 656.833,309.5 659.5,309.5C 659.5,310.5 659.5,311.5 659.5,312.5C 656.833,312.5 654.167,312.5 651.5,312.5C 651.5,311.5 651.5,310.5 651.5,309.5 Z"/></g>
<g><path style="opacity:1" fill="#b5b5b5" d="M 685.5,310.5 C 687.924,310.192 690.257,310.526 692.5,311.5C 691.333,311.833 690.167,312.167 689,312.5C 687.319,312.392 686.152,311.725 685.5,310.5 Z"/></g>
<g><path style="opacity:1" fill="#000000" d="M 761.5,311.5 C 763.337,311.639 763.67,312.306 762.5,313.5C 761.702,313.043 761.369,312.376 761.5,311.5 Z"/></g>
<g><path style="opacity:1" fill="#656565" d="M 707.5,310.5 C 708.833,310.5 710.167,310.5 711.5,310.5C 711.5,311.5 711.5,312.5 711.5,313.5C 706.305,313.821 701.305,313.487 696.5,312.5C 701.179,312.666 705.845,312.499 710.5,312C 709.263,311.768 708.263,311.268 707.5,310.5 Z"/></g>
<g><path style="opacity:1" fill="#787878" d="M 358.5,308.5 C 359.404,309.209 359.737,310.209 359.5,311.5C 362.5,311.5 365.5,311.5 368.5,311.5C 368.5,312.5 368.5,313.5 368.5,314.5C 364.298,314.817 360.298,314.483 356.5,313.5C 360.182,313.665 363.848,313.499 367.5,313C 364.518,312.502 361.518,312.335 358.5,312.5C 358.5,311.167 358.5,309.833 358.5,308.5 Z"/></g>
<g><path style="opacity:1" fill="#7a7a7a" d="M 454.5,309.5 C 454.5,310.833 454.5,312.167 454.5,313.5C 458.182,313.665 461.848,313.499 465.5,313C 462.305,312.819 459.305,312.319 456.5,311.5C 459.833,311.5 463.167,311.5 466.5,311.5C 466.5,312.5 466.5,313.5 466.5,314.5C 462.167,314.5 457.833,314.5 453.5,314.5C 453.216,312.585 453.549,310.919 454.5,309.5 Z"/></g>
<g><path style="opacity:1" fill="#5a5a5a" d="M 596.5,312.5 C 597.043,312.56 597.376,312.893 597.5,313.5C 593.351,314.809 589.351,314.809 585.5,313.5C 589.371,313.815 593.038,313.482 596.5,312.5 Z"/></g>
<g><path style="opacity:1" fill="#5d5d5d" d="M 718.5,308.5 C 718.5,310.167 718.5,311.833 718.5,313.5C 721.833,313.5 725.167,313.5 728.5,313.5C 728.923,311.219 728.256,309.552 726.5,308.5C 726.5,307.833 726.167,307.5 725.5,307.5C 725.5,306.833 725.5,306.167 725.5,305.5C 726.468,303.393 726.802,301.059 726.5,298.5C 727.5,298.5 728.5,298.5 729.5,298.5C 729.5,303.833 729.5,309.167 729.5,314.5C 725.5,314.5 721.5,314.5 717.5,314.5C 717.205,312.265 717.539,310.265 718.5,308.5 Z"/></g>
<g><path style="opacity:1" fill="#0e0e0e" d="M 718.5,308.5 C 721.307,309.657 723.974,309.657 726.5,308.5C 728.256,309.552 728.923,311.219 728.5,313.5C 725.167,313.5 721.833,313.5 718.5,313.5C 718.5,311.833 718.5,310.167 718.5,308.5 Z"/></g>
<g><path style="opacity:1" fill="#757575" d="M 720.5,310.5 C 722.604,310.201 724.604,310.534 726.5,311.5C 725.5,311.833 724.5,312.167 723.5,312.5C 721.97,312.36 720.97,311.693 720.5,310.5 Z"/></g>
<g><path style="opacity:1" fill="#202020" d="M 512.5,311.5 C 515.742,311.467 516.075,312.8 513.5,315.5C 512.571,314.311 512.238,312.978 512.5,311.5 Z"/></g>
<g><path style="opacity:1" fill="#6c5a50" d="M 457.5,374.5 C 454.833,375.167 452.167,375.833 449.5,376.5C 448.448,374.744 446.781,374.077 444.5,374.5C 444.836,378.949 444.503,382.616 443.5,385.5C 443.5,384.5 443.5,383.5 443.5,382.5C 440.813,382.664 438.146,382.497 435.5,382C 437.81,381.503 440.143,381.337 442.5,381.5C 442.5,379.5 442.5,377.5 442.5,375.5C 438.774,375.177 435.107,375.511 431.5,376.5C 440.744,378.127 440.744,379.127 431.5,379.5C 431.5,381.5 431.5,383.5 431.5,385.5C 430.539,387.265 430.205,389.265 430.5,391.5C 426.154,391.666 421.821,391.499 417.5,391C 421.486,390.501 425.486,390.334 429.5,390.5C 429.5,388.833 429.5,387.167 429.5,385.5C 424.125,385.172 418.792,385.505 413.5,386.5C 429.445,387.826 429.445,388.493 413.5,388.5C 413.5,390.167 413.5,391.833 413.5,393.5C 419.167,393.5 424.833,393.5 430.5,393.5C 424.833,394.167 419.167,394.833 413.5,395.5C 412.883,395.389 412.383,395.056 412,394.5C 411.501,387.486 411.668,380.486 412.5,373.5C 425.68,372.878 438.68,373.545 451.5,375.5C 452.623,374.456 453.956,373.79 455.5,373.5C 457.343,373.408 458.009,373.741 457.5,374.5 Z"/></g>
<g><path style="opacity:1" fill="#6d5e55" d="M 481.5,373.5 C 481.167,374.167 480.833,374.833 480.5,375.5C 476.833,375.5 473.167,375.5 469.5,375.5C 469.5,377.833 469.5,380.167 469.5,382.5C 468.5,382.5 467.5,382.5 466.5,382.5C 466.5,380.167 466.5,377.833 466.5,375.5C 464.643,374.235 462.976,374.568 461.5,376.5C 460.5,376.5 459.5,376.5 458.5,376.5C 459.398,375.842 460.398,375.176 461.5,374.5C 468.134,373.503 474.8,373.17 481.5,373.5 Z"/></g>
<g><path style="opacity:1" fill="#6e6058" d="M 546.5,376.5 C 541.897,375.617 537.23,375.283 532.5,375.5C 532.611,374.883 532.944,374.383 533.5,374C 536.833,373.333 540.167,373.333 543.5,374C 544.942,374.377 545.942,375.21 546.5,376.5 Z"/></g>
<g><path style="opacity:1" fill="#7b6d65" d="M 548.5,374.5 C 554.319,373.347 560.319,373.181 566.5,374C 567.056,374.383 567.389,374.883 567.5,375.5C 566.833,379.5 566.167,383.5 565.5,387.5C 565.5,386.5 565.5,385.5 565.5,384.5C 549.5,383.833 549.5,383.167 565.5,382.5C 565.5,380.167 565.5,377.833 565.5,375.5C 560.167,375.5 554.833,375.5 549.5,375.5C 549.5,374.833 549.167,374.5 548.5,374.5 Z"/></g>
<g><path style="opacity:1" fill="#746a65" d="M 577.5,374.5 C 576.833,374.5 576.5,374.833 576.5,375.5C 575.167,375.5 573.833,375.5 572.5,375.5C 572.5,378.5 572.5,381.5 572.5,384.5C 571.833,384.5 571.5,384.833 571.5,385.5C 570.517,381.702 570.183,377.702 570.5,373.5C 573.059,373.198 575.393,373.532 577.5,374.5 Z"/></g>
<g><path style="opacity:1" fill="#4a3528" d="M 609.5,373.5 C 609.5,374.167 609.5,374.833 609.5,375.5C 609.5,376.5 609.5,377.5 609.5,378.5C 618.572,378.326 618.572,379.326 609.5,381.5C 608.526,379.257 608.192,376.924 608.5,374.5C 606.901,374.232 605.568,374.566 604.5,375.5C 603.833,377.5 603.167,379.5 602.5,381.5C 602.396,379.297 601.73,377.297 600.5,375.5C 603.248,373.956 606.248,373.29 609.5,373.5 Z"/></g>
<g><path style="opacity:1" fill="#462e20" d="M 621.5,386.5 C 618.319,386.998 615.653,386.165 613.5,384C 618.635,383.372 620.968,380.539 620.5,375.5C 621.292,375.766 621.626,376.933 621.5,379C 621.695,381.352 621.028,383.352 619.5,385C 620.416,385.278 621.082,385.778 621.5,386.5 Z"/></g>
<g><path style="opacity:1" fill="#796c63" d="M 647.5,373.5 C 651.167,373.5 654.833,373.5 658.5,373.5C 658.5,375.5 658.5,377.5 658.5,379.5C 656.167,379.5 653.833,379.5 651.5,379.5C 653.265,378.539 655.265,378.205 657.5,378.5C 657.5,377.5 657.5,376.5 657.5,375.5C 654.167,375.5 650.833,375.5 647.5,375.5C 647.5,374.833 647.5,374.167 647.5,373.5 Z"/></g>
<g><path style="opacity:1" fill="#fdfcfc" d="M 412.5,382.5 C 416.884,382.826 421.217,382.492 425.5,381.5C 421.555,380.509 417.555,380.176 413.5,380.5C 417.044,378.732 421.044,377.898 425.5,378C 421.459,377.827 417.459,377.327 413.5,376.5C 418.792,375.505 424.125,375.172 429.5,375.5C 429.508,378.545 429.841,381.545 430.5,384.5C 424.074,385.12 418.074,384.453 412.5,382.5 Z"/></g>
<g><path style="opacity:1" fill="#faf9f9" d="M 443.5,385.5 C 439.5,385.5 435.5,385.5 431.5,385.5C 431.5,383.5 431.5,381.5 431.5,379.5C 440.744,379.127 440.744,378.127 431.5,376.5C 435.107,375.511 438.774,375.177 442.5,375.5C 442.5,377.5 442.5,379.5 442.5,381.5C 440.143,381.337 437.81,381.503 435.5,382C 438.146,382.497 440.813,382.664 443.5,382.5C 443.5,383.5 443.5,384.5 443.5,385.5 Z"/></g>
<g><path style="opacity:1" fill="#faf9f9" d="M 463.5,393.5 C 463.5,387.5 463.5,381.5 463.5,375.5C 464.5,375.5 465.5,375.5 466.5,375.5C 466.5,377.833 466.5,380.167 466.5,382.5C 467.5,382.5 468.5,382.5 469.5,382.5C 469.5,380.167 469.5,377.833 469.5,375.5C 473.167,375.5 476.833,375.5 480.5,375.5C 480.56,376.043 480.893,376.376 481.5,376.5C 482.842,374.995 484.508,374.328 486.5,374.5C 486.5,379.167 486.5,383.833 486.5,388.5C 485.167,388.5 483.833,388.5 482.5,388.5C 482.762,387.022 482.429,385.689 481.5,384.5C 476.523,385.286 471.523,385.953 466.5,386.5C 466.5,388.833 466.5,391.167 466.5,393.5C 465.5,393.5 464.5,393.5 463.5,393.5 Z"/></g>
<g><path style="opacity:1" fill="#4c3529" d="M 481.5,373.5 C 484.144,373.16 486.477,373.827 488.5,375.5C 489.497,382.468 489.83,389.468 489.5,396.5C 481.679,396.343 474.012,396.343 466.5,396.5C 464.519,396.563 462.852,395.896 461.5,394.5C 458.063,396.078 454.896,395.745 452,393.5C 451.517,394.448 451.351,395.448 451.5,396.5C 449.265,396.795 447.265,396.461 445.5,395.5C 446.568,394.566 447.901,394.232 449.5,394.5C 449.216,392.585 449.549,390.919 450.5,389.5C 450.577,390.75 451.244,391.583 452.5,392C 460.508,393.655 463.341,390.488 461,382.5C 460.617,381.944 460.117,381.611 459.5,381.5C 460.209,380.596 461.209,380.263 462.5,380.5C 462.182,385.032 462.515,389.366 463.5,393.5C 464.5,393.5 465.5,393.5 466.5,393.5C 466.5,391.167 466.5,388.833 466.5,386.5C 471.523,385.953 476.523,385.286 481.5,384.5C 482.429,385.689 482.762,387.022 482.5,388.5C 483.833,388.5 485.167,388.5 486.5,388.5C 486.5,383.833 486.5,379.167 486.5,374.5C 484.508,374.328 482.842,374.995 481.5,376.5C 480.893,376.376 480.56,376.043 480.5,375.5C 480.833,374.833 481.167,374.167 481.5,373.5 Z"/></g>
<g><path style="opacity:1" fill="#f7f6f5" d="M 529.5,382.5 C 529.5,383.5 529.5,384.5 529.5,385.5C 522.5,385.5 515.5,385.5 508.5,385.5C 508.5,388.167 508.5,390.833 508.5,393.5C 506.549,393.773 505.049,393.107 504,391.5C 500.27,392.46 496.437,392.793 492.5,392.5C 492.5,386.833 492.5,381.167 492.5,375.5C 496.167,375.5 499.833,375.5 503.5,375.5C 503.5,376.5 503.5,377.5 503.5,378.5C 501.167,378.5 498.833,378.5 496.5,378.5C 496.5,381.833 496.5,385.167 496.5,388.5C 499.167,388.5 501.833,388.5 504.5,388.5C 504.5,383.833 504.5,379.167 504.5,374.5C 505.833,374.5 507.167,374.5 508.5,374.5C 508.5,376.833 508.5,379.167 508.5,381.5C 515.457,382.386 522.457,382.72 529.5,382.5 Z"/></g>
<g><path style="opacity:1" fill="#513c30" d="M 528.5,375.5 C 529.702,376.405 531.036,376.405 532.5,375.5C 530.832,377.479 530.166,379.812 530.5,382.5C 530.167,382.5 529.833,382.5 529.5,382.5C 522.457,382.72 515.457,382.386 508.5,381.5C 508.5,379.167 508.5,376.833 508.5,374.5C 507.167,374.5 505.833,374.5 504.5,374.5C 504.5,379.167 504.5,383.833 504.5,388.5C 501.833,388.5 499.167,388.5 496.5,388.5C 496.5,385.167 496.5,381.833 496.5,378.5C 498.833,378.5 501.167,378.5 503.5,378.5C 503.5,377.5 503.5,376.5 503.5,375.5C 499.833,375.5 496.167,375.5 492.5,375.5C 492.5,381.167 492.5,386.833 492.5,392.5C 496.437,392.793 500.27,392.46 504,391.5C 505.049,393.107 506.549,393.773 508.5,393.5C 507.1,394.1 506.1,395.1 505.5,396.5C 500.676,396.141 496.009,395.141 491.5,393.5C 490.19,386.944 490.19,380.444 491.5,374C 501.08,373.843 510.58,373.676 520,373.5C 522.5,373.667 525,373.833 527.5,374C 528.056,374.383 528.389,374.883 528.5,375.5 Z"/></g>
<g><path style="opacity:1" fill="#e9e5e3" d="M 528.5,375.5 C 528.739,377.467 528.406,379.301 527.5,381C 522.5,381.667 517.5,381.667 512.5,381C 511.065,378.733 511.398,376.733 513.5,375C 518.552,374.274 523.552,374.441 528.5,375.5 Z"/></g>
<g><path style="opacity:1" fill="#f3f2f1" d="M 532.5,375.5 C 537.23,375.283 541.897,375.617 546.5,376.5C 548.366,386.117 544.366,389.617 534.5,387C 532.249,386.252 530.916,384.752 530.5,382.5C 530.166,379.812 530.832,377.479 532.5,375.5 Z"/></g>
<g><path style="opacity:1" fill="#fbfbfb" d="M 576.5,375.5 C 576.5,377.167 576.5,378.833 576.5,380.5C 578.607,381.468 580.941,381.802 583.5,381.5C 583.5,382.5 583.5,383.5 583.5,384.5C 580.167,384.5 576.833,384.5 573.5,384.5C 573.167,384.5 572.833,384.5 572.5,384.5C 572.5,381.5 572.5,378.5 572.5,375.5C 573.833,375.5 575.167,375.5 576.5,375.5 Z"/></g>
<g><path style="opacity:1" fill="#f8f7f7" d="M 589.5,384.5 C 588.167,384.5 586.833,384.5 585.5,384.5C 585.5,382.833 585.5,381.167 585.5,379.5C 583.833,379.5 582.167,379.5 580.5,379.5C 580.5,378.5 580.5,377.5 580.5,376.5C 583.564,376.072 586.564,375.406 589.5,374.5C 589.5,377.833 589.5,381.167 589.5,384.5 Z"/></g>
<g><path style="opacity:1" fill="#f1efed" d="M 609.5,375.5 C 613.167,375.5 616.833,375.5 620.5,375.5C 620.968,380.539 618.635,383.372 613.5,384C 615.653,386.165 618.319,386.998 621.5,386.5C 623.042,385.699 624.708,385.366 626.5,385.5C 626.5,388.167 626.5,390.833 626.5,393.5C 621.167,393.5 615.833,393.5 610.5,393.5C 609.366,380.363 608.699,380.363 608.5,393.5C 607.167,393.5 605.833,393.5 604.5,393.5C 604.5,390.833 604.5,388.167 604.5,385.5C 603.5,385.5 602.5,385.5 601.5,385.5C 601.5,386.833 601.5,388.167 601.5,389.5C 601.586,390.496 601.252,391.329 600.5,392C 592.991,394.488 589.657,391.821 590.5,384C 590.364,380.927 591.03,378.094 592.5,375.5C 595.167,375.5 597.833,375.5 600.5,375.5C 601.73,377.297 602.396,379.297 602.5,381.5C 602.56,382.043 602.893,382.376 603.5,382.5C 604.474,380.257 604.808,377.924 604.5,375.5C 605.568,374.566 606.901,374.232 608.5,374.5C 608.192,376.924 608.526,379.257 609.5,381.5C 618.572,379.326 618.572,378.326 609.5,378.5C 609.5,377.5 609.5,376.5 609.5,375.5 Z"/></g>
<g><path style="opacity:1" fill="#998b84" d="M 604.5,375.5 C 604.808,377.924 604.474,380.257 603.5,382.5C 602.893,382.376 602.56,382.043 602.5,381.5C 603.167,379.5 603.833,377.5 604.5,375.5 Z"/></g>
<g><path style="opacity:1" fill="#6f5f55" d="M 609.5,373.5 C 618.234,372.865 626.567,373.532 634.5,375.5C 633.515,379.634 633.182,383.968 633.5,388.5C 632.515,384.366 632.182,380.032 632.5,375.5C 631.5,375.5 630.5,375.5 629.5,375.5C 628.778,376.551 627.778,377.218 626.5,377.5C 626.5,376.5 626.5,375.5 626.5,374.5C 625.167,374.5 623.833,374.5 622.5,374.5C 622.5,377.833 622.5,381.167 622.5,384.5C 623.833,384.5 625.167,384.5 626.5,384.5C 626.5,384.833 626.5,385.167 626.5,385.5C 624.708,385.366 623.042,385.699 621.5,386.5C 621.082,385.778 620.416,385.278 619.5,385C 621.028,383.352 621.695,381.352 621.5,379C 621.626,376.933 621.292,375.766 620.5,375.5C 616.833,375.5 613.167,375.5 609.5,375.5C 609.5,374.833 609.5,374.167 609.5,373.5 Z"/></g>
<g><path style="opacity:1" fill="#f5f3f2" d="M 626.5,377.5 C 627.806,378.467 628.473,379.801 628.5,381.5C 626.952,381.821 626.285,382.821 626.5,384.5C 625.167,384.5 623.833,384.5 622.5,384.5C 622.5,381.167 622.5,377.833 622.5,374.5C 623.833,374.5 625.167,374.5 626.5,374.5C 626.5,375.5 626.5,376.5 626.5,377.5 Z"/></g>
<g><path style="opacity:1" fill="#b1a7a2" d="M 629.5,375.5 C 629.5,380.833 629.5,386.167 629.5,391.5C 633.167,391.5 636.833,391.5 640.5,391.5C 636.702,392.483 632.702,392.817 628.5,392.5C 628.5,388.833 628.5,385.167 628.5,381.5C 628.473,379.801 627.806,378.467 626.5,377.5C 627.778,377.218 628.778,376.551 629.5,375.5 Z"/></g>
<g><path style="opacity:1" fill="#f7f6f6" d="M 645.5,375.5 C 645.5,381.5 645.5,387.5 645.5,393.5C 644.167,393.5 642.833,393.5 641.5,393.5C 641.672,392.508 641.338,391.842 640.5,391.5C 636.833,391.5 633.167,391.5 629.5,391.5C 629.5,386.167 629.5,380.833 629.5,375.5C 630.5,375.5 631.5,375.5 632.5,375.5C 632.182,380.032 632.515,384.366 633.5,388.5C 636.167,388.5 638.833,388.5 641.5,388.5C 641.5,383.833 641.5,379.167 641.5,374.5C 643.099,374.232 644.432,374.566 645.5,375.5 Z"/></g>
<g><path style="opacity:1" fill="#85766c" d="M 645.5,375.5 C 646.167,375.5 646.833,375.5 647.5,375.5C 647.5,381.167 647.5,386.833 647.5,392.5C 646.833,392.833 646.167,393.167 645.5,393.5C 645.5,387.5 645.5,381.5 645.5,375.5 Z"/></g>
<g><path style="opacity:1" fill="#f6f5f4" d="M 647.5,392.5 C 647.5,386.833 647.5,381.167 647.5,375.5C 650.833,375.5 654.167,375.5 657.5,375.5C 657.5,376.5 657.5,377.5 657.5,378.5C 655.265,378.205 653.265,378.539 651.5,379.5C 651.5,382.5 651.5,385.5 651.5,388.5C 654.167,388.5 656.833,388.5 659.5,388.5C 659.5,383.833 659.5,379.167 659.5,374.5C 660.833,374.5 662.167,374.5 663.5,374.5C 663.5,376.833 663.5,379.167 663.5,381.5C 664.5,381.5 665.5,381.5 666.5,381.5C 666.5,382.833 666.5,384.167 666.5,385.5C 665.5,385.5 664.5,385.5 663.5,385.5C 663.5,388.167 663.5,390.833 663.5,393.5C 662.167,393.5 660.833,393.5 659.5,393.5C 659.798,390.664 659.131,390.164 657.5,392C 654.183,392.498 650.85,392.665 647.5,392.5 Z"/></g>
<g><path style="opacity:1" fill="#432a1d" d="M 548.5,374.5 C 549.167,374.5 549.5,374.833 549.5,375.5C 549.5,376.5 549.5,377.5 549.5,378.5C 565.5,378.833 565.5,379.167 549.5,379.5C 549.5,382.167 549.5,384.833 549.5,387.5C 551.604,387.201 553.604,387.534 555.5,388.5C 553.257,389.474 550.924,389.808 548.5,389.5C 548.167,389.5 547.833,389.5 547.5,389.5C 541.5,389.5 535.5,389.5 529.5,389.5C 529.5,390.5 529.5,391.5 529.5,392.5C 541.989,393.495 554.656,393.829 567.5,393.5C 567.768,391.901 567.434,390.568 566.5,389.5C 564.076,389.808 561.743,389.474 559.5,388.5C 561.396,387.534 563.396,387.201 565.5,387.5C 566.167,383.5 566.833,379.5 567.5,375.5C 568.444,381.994 569.111,388.661 569.5,395.5C 548.163,395.623 526.829,395.956 505.5,396.5C 506.1,395.1 507.1,394.1 508.5,393.5C 508.5,390.833 508.5,388.167 508.5,385.5C 515.5,385.5 522.5,385.5 529.5,385.5C 529.5,384.5 529.5,383.5 529.5,382.5C 529.833,382.5 530.167,382.5 530.5,382.5C 530.916,384.752 532.249,386.252 534.5,387C 544.366,389.617 548.366,386.117 546.5,376.5C 548.203,377.66 548.869,376.993 548.5,374.5 Z"/></g>
<g><path style="opacity:1" fill="#fcfcfc" d="M 549.5,375.5 C 554.833,375.5 560.167,375.5 565.5,375.5C 565.5,377.833 565.5,380.167 565.5,382.5C 549.5,383.167 549.5,383.833 565.5,384.5C 565.5,385.5 565.5,386.5 565.5,387.5C 563.396,387.201 561.396,387.534 559.5,388.5C 561.743,389.474 564.076,389.808 566.5,389.5C 566.5,390.5 566.5,391.5 566.5,392.5C 560.5,392.5 554.5,392.5 548.5,392.5C 548.5,391.5 548.5,390.5 548.5,389.5C 550.924,389.808 553.257,389.474 555.5,388.5C 553.604,387.534 551.604,387.201 549.5,387.5C 549.5,384.833 549.5,382.167 549.5,379.5C 565.5,379.167 565.5,378.833 549.5,378.5C 549.5,377.5 549.5,376.5 549.5,375.5 Z"/></g>
<g><path style="opacity:1" fill="#40281b" d="M 647.5,373.5 C 647.5,374.167 647.5,374.833 647.5,375.5C 646.833,375.5 646.167,375.5 645.5,375.5C 644.432,374.566 643.099,374.232 641.5,374.5C 641.5,379.167 641.5,383.833 641.5,388.5C 638.833,388.5 636.167,388.5 633.5,388.5C 633.182,383.968 633.515,379.634 634.5,375.5C 635.483,379.298 635.817,383.298 635.5,387.5C 637.167,387.5 638.833,387.5 640.5,387.5C 640.5,382.833 640.5,378.167 640.5,373.5C 642.833,373.5 645.167,373.5 647.5,373.5 Z"/></g>
<g><path style="opacity:1" fill="#77655a" d="M 473.5,378.5 C 474.5,378.5 475.5,378.5 476.5,378.5C 476.5,379.833 476.5,381.167 476.5,382.5C 475.5,382.5 474.5,382.5 473.5,382.5C 473.5,381.167 473.5,379.833 473.5,378.5 Z"/></g>
<g><path style="opacity:1" fill="#4d362a" d="M 535.5,378.5 C 537.857,378.337 540.19,378.503 542.5,379C 543.517,380.049 543.684,381.216 543,382.5C 540.599,383.602 538.099,383.769 535.5,383C 534.272,381.51 534.272,380.01 535.5,378.5 Z"/></g>
<g><path style="opacity:1" fill="#604b3f" d="M 595.5,378.5 C 596.496,378.414 597.329,378.748 598,379.5C 598.667,382.5 598.667,385.5 598,388.5C 597,389.833 596,389.833 595,388.5C 594.253,385.076 594.42,381.743 595.5,378.5 Z"/></g>
<g><path style="opacity:1" fill="#6e5b50" d="M 480.5,379.5 C 482.337,379.639 482.67,380.306 481.5,381.5C 480.702,381.043 480.369,380.376 480.5,379.5 Z"/></g>
<g><path style="opacity:1" fill="#ada29c" d="M 413.5,380.5 C 417.555,380.176 421.555,380.509 425.5,381.5C 421.217,382.492 416.884,382.826 412.5,382.5C 412.833,381.833 413.167,381.167 413.5,380.5 Z"/></g>
<g><path style="opacity:1" fill="#9ca6ac" d="M 499.5,381.5 C 500.833,381.5 502.167,381.5 503.5,381.5C 503.5,383.5 503.5,385.5 503.5,387.5C 502.167,387.5 500.833,387.5 499.5,387.5C 499.5,385.5 499.5,383.5 499.5,381.5 Z"/></g>
<g><path style="opacity:1" fill="#452e21" d="M 658.5,373.5 C 661.144,373.16 663.477,373.827 665.5,375.5C 667.547,379.224 668.547,383.224 668.5,387.5C 670.124,387.36 671.29,388.027 672,389.5C 672.497,391.81 672.663,394.143 672.5,396.5C 663.479,395.769 654.479,395.769 645.5,396.5C 644.5,396.167 643.5,395.833 642.5,395.5C 643.602,394.824 644.602,394.158 645.5,393.5C 646.167,393.167 646.833,392.833 647.5,392.5C 650.85,392.665 654.183,392.498 657.5,392C 659.131,390.164 659.798,390.664 659.5,393.5C 660.833,393.5 662.167,393.5 663.5,393.5C 663.5,390.833 663.5,388.167 663.5,385.5C 664.5,385.5 665.5,385.5 666.5,385.5C 666.5,384.167 666.5,382.833 666.5,381.5C 665.5,381.5 664.5,381.5 663.5,381.5C 663.5,379.167 663.5,376.833 663.5,374.5C 662.167,374.5 660.833,374.5 659.5,374.5C 659.5,379.167 659.5,383.833 659.5,388.5C 656.833,388.5 654.167,388.5 651.5,388.5C 651.5,385.5 651.5,382.5 651.5,379.5C 653.833,379.5 656.167,379.5 658.5,379.5C 658.5,377.5 658.5,375.5 658.5,373.5 Z"/></g>
<g><path style="opacity:1" fill="#8f9498" d="M 653.5,381.5 C 655.167,381.5 656.833,381.5 658.5,381.5C 658.5,383.5 658.5,385.5 658.5,387.5C 656.833,387.5 655.167,387.5 653.5,387.5C 653.5,385.5 653.5,383.5 653.5,381.5 Z"/></g>
<g><path style="opacity:1" fill="#726156" d="M 580.5,379.5 C 582.167,379.5 583.833,379.5 585.5,379.5C 585.5,381.167 585.5,382.833 585.5,384.5C 586.833,384.5 588.167,384.5 589.5,384.5C 589.5,384.833 589.5,385.167 589.5,385.5C 584.167,385.5 578.833,385.5 573.5,385.5C 573.5,385.167 573.5,384.833 573.5,384.5C 576.833,384.5 580.167,384.5 583.5,384.5C 583.5,383.5 583.5,382.5 583.5,381.5C 580.941,381.802 578.607,381.468 576.5,380.5C 578.099,380.768 579.432,380.434 580.5,379.5 Z"/></g>
<g><path style="opacity:1" fill="#fdfcfc" d="M 430.5,391.5 C 430.5,392.167 430.5,392.833 430.5,393.5C 424.833,393.5 419.167,393.5 413.5,393.5C 413.5,391.833 413.5,390.167 413.5,388.5C 429.445,388.493 429.445,387.826 413.5,386.5C 418.792,385.505 424.125,385.172 429.5,385.5C 429.5,387.167 429.5,388.833 429.5,390.5C 425.486,390.334 421.486,390.501 417.5,391C 421.821,391.499 426.154,391.666 430.5,391.5 Z"/></g>
<g><path style="opacity:1" fill="#3d2317" d="M 431.5,385.5 C 431.989,386.995 432.655,388.329 433.5,389.5C 437.021,390.166 440.687,390.833 444.5,391.5C 440.62,392.795 436.786,392.795 433,391.5C 432.506,393.134 432.34,394.801 432.5,396.5C 425.978,396.823 419.645,396.49 413.5,395.5C 419.167,394.833 424.833,394.167 430.5,393.5C 430.5,392.833 430.5,392.167 430.5,391.5C 430.205,389.265 430.539,387.265 431.5,385.5 Z"/></g>
<g><path style="opacity:1" fill="#ece9e7" d="M 511.5,386.5 C 517.167,386.5 522.833,386.5 528.5,386.5C 528.5,388.833 528.5,391.167 528.5,393.5C 522.993,393.196 517.326,393.196 511.5,393.5C 511.5,391.167 511.5,388.833 511.5,386.5 Z"/></g>
<g><path style="opacity:1" fill="#9f938d" d="M 449.5,376.5 C 449.5,377.5 449.5,378.5 449.5,379.5C 453.5,379.5 457.5,379.5 461.5,379.5C 461.5,378.5 461.5,377.5 461.5,376.5C 462.976,374.568 464.643,374.235 466.5,375.5C 465.5,375.5 464.5,375.5 463.5,375.5C 463.5,381.5 463.5,387.5 463.5,393.5C 462.515,389.366 462.182,385.032 462.5,380.5C 461.209,380.263 460.209,380.596 459.5,381.5C 452.252,379.298 449.252,381.965 450.5,389.5C 449.549,390.919 449.216,392.585 449.5,394.5C 447.901,394.232 446.568,394.566 445.5,395.5C 441.742,393.817 437.742,393.151 433.5,393.5C 433.737,394.791 433.404,395.791 432.5,396.5C 432.34,394.801 432.506,393.134 433,391.5C 436.786,392.795 440.62,392.795 444.5,391.5C 440.687,390.833 437.021,390.166 433.5,389.5C 432.655,388.329 431.989,386.995 431.5,385.5C 435.5,385.5 439.5,385.5 443.5,385.5C 444.503,382.616 444.836,378.949 444.5,374.5C 446.781,374.077 448.448,374.744 449.5,376.5 Z"/></g>
<g><path style="opacity:1" fill="#fefffe" d="M 433.5,389.5 C 438.056,387.558 443.056,386.892 448.5,387.5C 448.5,389.5 448.5,391.5 448.5,393.5C 447.5,393.5 446.5,393.5 445.5,393.5C 445.5,392.167 445.5,390.833 445.5,389.5C 441.5,389.5 437.5,389.5 433.5,389.5 Z"/></g>
<g><path style="opacity:1" fill="#f4f3f2" d="M 459.5,381.5 C 460.117,381.611 460.617,381.944 461,382.5C 463.341,390.488 460.508,393.655 452.5,392C 451.244,391.583 450.577,390.75 450.5,389.5C 449.252,381.965 452.252,379.298 459.5,381.5 Z"/></g>
<g><path style="opacity:1" fill="#493123" d="M 454.5,384.5 C 455.5,384.5 456.5,384.5 457.5,384.5C 457.5,386.167 457.5,387.833 457.5,389.5C 456.5,389.5 455.5,389.5 454.5,389.5C 454.5,387.833 454.5,386.167 454.5,384.5 Z"/></g>
<g><path style="opacity:1" fill="#f9f9f8" d="M 457.5,374.5 C 457.328,375.492 457.662,376.158 458.5,376.5C 459.5,376.5 460.5,376.5 461.5,376.5C 461.5,377.5 461.5,378.5 461.5,379.5C 457.5,379.5 453.5,379.5 449.5,379.5C 449.5,378.5 449.5,377.5 449.5,376.5C 452.167,375.833 454.833,375.167 457.5,374.5 Z"/></g>
<g><path style="opacity:1" fill="#fefffe" d="M 445.5,375.5 C 446.5,375.5 447.5,375.5 448.5,375.5C 448.5,378.833 448.5,382.167 448.5,385.5C 447.5,385.5 446.5,385.5 445.5,385.5C 445.5,382.167 445.5,378.833 445.5,375.5 Z"/></g>
<g><path style="opacity:1" fill="#f9f9f8" d="M 470.5,386.5 C 471.833,386.5 473.167,386.5 474.5,386.5C 474.5,387.833 474.5,389.167 474.5,390.5C 478.5,390.5 482.5,390.5 486.5,390.5C 486.5,391.5 486.5,392.5 486.5,393.5C 481.167,393.5 475.833,393.5 470.5,393.5C 470.5,391.167 470.5,388.833 470.5,386.5 Z"/></g>
<g><path style="opacity:1" fill="#fefefe" d="M 547.5,389.5 C 547.5,390.5 547.5,391.5 547.5,392.5C 541.5,392.5 535.5,392.5 529.5,392.5C 529.5,391.5 529.5,390.5 529.5,389.5C 535.5,389.5 541.5,389.5 547.5,389.5 Z"/></g>
<g><path style="opacity:1" fill="#472f22" d="M 592.5,375.5 C 591.03,378.094 590.364,380.927 590.5,384C 589.657,391.821 592.991,394.488 600.5,392C 601.252,391.329 601.586,390.496 601.5,389.5C 602.268,388.737 602.768,387.737 603,386.5C 603.186,389.036 603.686,391.369 604.5,393.5C 605.833,393.5 607.167,393.5 608.5,393.5C 608.699,380.363 609.366,380.363 610.5,393.5C 615.833,393.5 621.167,393.5 626.5,393.5C 626.5,390.833 626.5,388.167 626.5,385.5C 626.5,385.167 626.5,384.833 626.5,384.5C 626.285,382.821 626.952,381.821 628.5,381.5C 628.5,385.167 628.5,388.833 628.5,392.5C 632.702,392.817 636.702,392.483 640.5,391.5C 641.338,391.842 641.672,392.508 641.5,393.5C 637.434,394.822 633.267,394.822 629,393.5C 628.517,394.448 628.351,395.448 628.5,396.5C 619.838,397.07 611.338,396.403 603,394.5C 593.411,395.893 583.577,396.393 573.5,396C 572.865,392.397 572.198,388.897 571.5,385.5C 571.5,384.833 571.833,384.5 572.5,384.5C 572.833,384.5 573.167,384.5 573.5,384.5C 573.5,384.833 573.5,385.167 573.5,385.5C 573.5,388.167 573.5,390.833 573.5,393.5C 578.992,393.168 584.325,393.168 589.5,393.5C 589.5,390.833 589.5,388.167 589.5,385.5C 589.5,385.167 589.5,384.833 589.5,384.5C 589.5,381.167 589.5,377.833 589.5,374.5C 586.564,375.406 583.564,376.072 580.5,376.5C 580.5,377.5 580.5,378.5 580.5,379.5C 579.432,380.434 578.099,380.768 576.5,380.5C 576.5,378.833 576.5,377.167 576.5,375.5C 576.5,374.833 576.833,374.5 577.5,374.5C 578.449,375.152 579.615,375.486 581,375.5C 583.194,374.921 585.36,374.254 587.5,373.5C 589.304,373.986 590.971,374.653 592.5,375.5 Z"/></g>
<g><path style="opacity:1" fill="#9d9089" d="M 604.5,393.5 C 603.686,391.369 603.186,389.036 603,386.5C 602.768,387.737 602.268,388.737 601.5,389.5C 601.5,388.167 601.5,386.833 601.5,385.5C 602.5,385.5 603.5,385.5 604.5,385.5C 604.5,388.167 604.5,390.833 604.5,393.5 Z"/></g>
<g><path style="opacity:1" fill="#fcfcfb" d="M 573.5,385.5 C 578.833,385.5 584.167,385.5 589.5,385.5C 589.5,388.167 589.5,390.833 589.5,393.5C 584.325,393.168 578.992,393.168 573.5,393.5C 573.5,390.833 573.5,388.167 573.5,385.5 Z"/></g>
<g><path style="opacity:1" fill="#7d6d63" d="M 577.5,388.5 C 580.247,388.187 582.914,388.52 585.5,389.5C 584.167,389.833 582.833,390.167 581.5,390.5C 579.667,390.415 578.334,389.748 577.5,388.5 Z"/></g>
<g><path style="opacity:1" fill="#a29790" d="M 547.5,389.5 C 547.833,389.5 548.167,389.5 548.5,389.5C 548.5,390.5 548.5,391.5 548.5,392.5C 554.5,392.5 560.5,392.5 566.5,392.5C 566.5,391.5 566.5,390.5 566.5,389.5C 567.434,390.568 567.768,391.901 567.5,393.5C 554.656,393.829 541.989,393.495 529.5,392.5C 535.5,392.5 541.5,392.5 547.5,392.5C 547.5,391.5 547.5,390.5 547.5,389.5 Z"/></g>
<g><path style="opacity:1" fill="#c1bab4" d="M 665.5,388.5 C 667.167,388.5 668.833,388.5 670.5,388.5C 670.5,390.167 670.5,391.833 670.5,393.5C 668.833,393.5 667.167,393.5 665.5,393.5C 665.5,391.833 665.5,390.167 665.5,388.5 Z"/></g>
<g><path style="opacity:1" fill="#abafb2" d="M -0.5,57.5 C -0.166667,57.5 0.166667,57.5 0.5,57.5C 0.5,215.5 0.5,373.5 0.5,531.5C 360.167,531.5 719.833,531.5 1079.5,531.5C 1079.5,531.833 1079.5,532.167 1079.5,532.5C 719.5,532.5 359.5,532.5 -0.5,532.5C -0.5,374.167 -0.5,215.833 -0.5,57.5 Z"/></g>
</svg>
